<svg xmlns="http://www.w3.org/2000/svg">
  <symbol viewBox="0 0 18 18" id="icon-search">
    <path opacity=".2" d="m17.7 16.06-3.48-3.48a7.63 7.63 0 0 0
                      1.53-4.7c0-4.4-3.48-7.88-7.88-7.88A7.81 7.81 0 0 0 0
                      7.88c0 4.4 3.48 7.87 7.88 7.87 1.73 0 3.37-.61 4.7-1.53l3.48
                      3.47c.2.2.4.31.82.31.6 0 1.12-.51 1.12-1.13 0-.2-.1-.5-.3-.81ZM2.24 7.88a5.67
                      5.67 0 0 1 5.63-5.63 5.67 5.67 0 0 1 5.62 5.63 5.67 5.67 0 0 1-5.63 5.62 5.67 5.67 0 0
                      1-5.62-5.63Z" fill="#000"/>
  </symbol>
  <symbol viewBox="0 0 21 18" id="icon-cart">
    <path opacity=".2" d="M20.19 6.86h-3.55L13.19.38c-.2-.38-.61-.48-1.02-.28-.4.19-.5.57-.3.95l3.14
                        5.8H5.78l3.15-5.8c.2-.38 0-.76-.3-.95A.82.82 0 0 0 7.6.38L4.16 6.86H.8c-.4
                        0-.81.28-.81.76 0 .38.3.76.81.76h.2l.92 2.86c-.2.1-.3.28-.3.57 0
                        .38.3.67.7.67L4.06 18h12.88l1.73-5.52c.4 0 .7-.29.7-.67 0-.2-.1-.48-.3-.57L20 8.38h.2c.4
                        0 .81-.28.81-.76s-.4-.76-.81-.76Zm-4.57 9.62H5.07l-1.21-4.1h13.08l-1.32
                        4.1Zm1.63-5.53H3.35L2.54 8.3h15.52l-.81 2.66Z" fill="#000"/>
  </symbol>
  <symbol viewBox="0 0 40 62" id="icon-interior">
    <path d="M15.16 37.72c-.3 1-.2 2.19 0 3.58.5 2.59 1.7 5.97 2.4 9.65h5.08c.7-3.58 1.9-6.96 2.5-9.65.3-1.4.3-2.69
                      0-3.58-.3-.9-.9-1.6-2-2.3h-5.98c-1.2.7-1.8 1.4-2 2.3ZM26.93
                      57.62H13.17c-1.3 0-2.3 1-2.3 2.19V62h18.36v-2.19c0-1.2-1-2.19-2.3-2.19ZM34.02
                        2.19H22.34c0-1.2-1-2.19-2.29-2.19-1.3 0-2.3 1-2.3 2.19H6.09L0 27.57c.8-.5 1.6-1 2.6-1 1.39
                        0 2.19.8 2.89 1.4.7.6 1.2.8 1.4.8.3 0 .8-.3 1.49-.8.7-.5 1.6-1.4 2.9-1.4 1.29 0 2.19.8 2.88
                          1.4.7.5 1.2.8 1.5.8.1 0 .3-.1.6-.2.2-.1.5-.4.9-.6.5-.4 1.1-1 2-1.2.3-.1.6-.1.89-.1 1.3
                          0 2.2.8 2.9 1.4.7.5 1.19.8 1.49.8.3 0 .8-.3 1.4-.8.7-.6 1.6-1.4 2.89-1.4 1.4 0 2.2.8
                            2.9 1.4.29.3.59.5.89.6.2.1.4.2.6.2.3 0 .8-.3 1.4-.9.7-.6 1.59-1.4 2.89-1.4 1 0 1.8.5 2.59
                            1L34.02 2.19ZM23.44 53.14h-6.88c-.7 0-1.1.5-1.1 1.1 0 .6.5 1.1 1.1 1.1h6.88c.7 0 1.1-.5
                              1.1-1.1.1-.6-.4-1.1-1.1-1.1Z"/>
    <path d="M20.05 28.76c-.1 0-.3.1-.6.2-.2.1-.4.3-.6.4v3.68h2.3v-3.58c-.5-.4-.9-.7-1.1-.7Z"/>
  </symbol>
  <symbol viewBox="0 0 60 62" id="icon-toy">
    <path opacity=".5" d="m0 44 27.4 16V36.54L0 20.44v23.55Zm51.3-31.52V15c0
                    1.81-3.5 3.32-7.7 3.32-4.3 0-7.7-1.5-7.7-3.32v-4.13c.3 1.71 3.6 3.12 7.7
                    3.12 4.3 0 7.7-1.5 7.7-3.32 0-1.81-3.5-3.32-7.7-3.32h-1l-5-2.92v3.12c0
                      1.81-3.5 3.32-7.7 3.32-2.7 0-5-.6-6.4-1.5-.2-.2-.4-.41-.7-.61-.4-.4-.6-.8-.6-1.21V4.53l-4.8
                      2.82h-1.1c-4.3 0-7.7 1.5-7.7 3.32 0 1.81 3.5 3.32 7.7 3.32 4.1 0 7.4-1.4 7.7-3.12V15c0
                        1.81-3.5 3.32-7.7 3.32-4.3 0-7.7-1.5-7.7-3.32v-2.42l-6 3.53 27.5 16.1 27.4-16-6.2-3.73ZM37.7
                        22.75c0 1.81-3.5 3.32-7.7 3.32-4.3 0-7.7-1.5-7.7-3.32v-4.13c.3 1.72 3.6 3.13
                          7.7 3.13s7.4-1.41 7.7-3.13v4.13Zm-5.1 14V60L60 44V20.73l-27.4 16Zm-2.7-30.1c4.3
                          0 7.7-1.52 7.7-3.33S34.1 0 29.9 0c-4.3 0-7.7 1.51-7.7 3.32 0 1.81 3.4 3.32 7.7 3.32Z" fill="#149080"/>
  </symbol>
  <symbol viewBox="0 0 86 35" id="icon-logo">
    <path d="M4.55 26.32c0-3.5-.3-6.9-.4-10.4v-1c0 .1.1.2.1.4.5 1.4 1.1 2.7 1.8 3.9.7 1.2 1.1 2.6 1.5 3.9-.2.2-.3.4-.2.6 0 .2.1.2.2.3.5.5 1.5.2 2.1 0 .2-.1.5-.2.7-.4.3-.2.7-.6.6-1 0-.1 0-.2-.1-.2.4-1.1.6-2.2.8-3.3.2-1.2.7-2.3 1.1-3.5 0 .5.1 1 .1 1.6.2 2.1 0 4.3 0 6.4 0 .7 0 1.4.2 2.1.1.3.3 1.5.2 1.6-.5.5-.4 1.1.3 1.2.8.2 1.8-.1 2.3-.6 1-.9.5-2.4.3-3.6-.4-2 .1-4.2 0-6.2-.1-2.3-.4-4.5-.4-6.8 0-1.8.3-3.7-.3-5.5 0-.2.1-.4.1-.6.2-.9-2.8-.4-3.2.4-.3.2-.4.5-.3.8 0 .1.1.1.1.2-.6 2.7-1.3 5.3-2.2 7.9-.3 1-.7 2-1.1 3-.5-.9-1-1.9-1.4-2.8-1.2-2.9-2.2-5.8-3.6-8.6.2-1.3-2.7-1.2-3.3 0-.7 1.4-.6 2.9-.4 4.4.3 1.7.3 3.4.3 5.1 0 3.3.3 6.7.4 10-.3.3-.4.7-.1 1.2.1.2.3.3.5.5 1.2.7 3.3.2 3.3-1ZM22.75 7.92c-.1-.6-3.4.1-3.3.9.3 1.8.2 3.6.1 5.4 0 1.7.4 3.3.6 5 .2 1.7-.1 3.5.1 5.2.1.8.6 2.3.1 3-.4.4 1.2.3 1.3.3.6-.1 1.5-.3 1.9-.9.6-.7.2-2 0-2.8-.3-1.7-.1-3.5-.2-5.3-.1-1.7-.6-3.3-.7-4.9.3-2 .4-3.9.1-5.9ZM25.95 14.62c.9 2.5 4.6 1.3 6.6 1.5 3.2.2 2.3 4.6 2.3 6.6 0 1.1 1 2.9.2 3.8-.5.6-1.7.6-2.4.6-.7.1-1.9.3-2.3-.4-.8-1.2.1-3.2-.1-4.6-.1-.8-3.4-.1-3.3.9.3 2.2-1.2 5.2 2 5.6 2.1.2 4.4-.1 6.3-.8 1-.3 1.9-.8 2.7-1.5.9-.8.6-2 .4-3-.6-2.5.6-5.3-1-7.5-1.7-2.3-5-.7-7.2-1.3-1.2-.2-1.2-1.8-1.2-2.8 0-1.2-.1-2.3-.2-3.5-.1-.9 0-1.8.6-2.4.1-.1.7-.3.7-.3.3-.1.6-.1.9-.1 1.3-.1 3.9.2 3.4 2.1-.2.9 3 .4 3.3-.5 1-3.9-6.1-3.1-8.2-2.6-1.9.5-3.9 1.6-4 3.7-.1 1 .2 2 .3 3 0 1.2-.3 2.4.2 3.5ZM40.35 16.52c-.1 1.8-.2 3.6-.2 5.4 0 .9.1 1.8.3 2.8.1.8.4 2 .2 2.8-.2.6 3 .2 3.3-.6.5-1.5-.2-3.4-.3-4.9-.1-1.5 0-2.9.1-4.4 1.7-.1 3.4-.2 5.1 0l.3 3.5c.1 1 .2 1.9.2 2.9 0 .9.1 2.1-.2 2.9-.7 1.7 2.7 1.6 3.1.3.6-1.6.4-3.5.3-5.2-.3-2.2-.6-4.2-.6-6.3-.1-3.2-.6-6.3-.6-9.5 0-1.7-3.3-1.1-3.3.3 0 3 .4 6 .6 9.1v.2c-1.6 0-3.3.1-4.9.2.2-3.9-.5-7.8-.4-11.7 0-.5-3.3-.1-3.3.9-.2 3.8.4 7.5.3 11.3ZM54.45 21.82c-.3.3-.2.4 0 .5 0 1.5 0 2.9-.2 4.4-.4.6.4 1 .9 1h.1c.6 0 2.2-.3 2.3-1.1.2-1.8.2-3.5.2-5.3 1.3-1.4 2.4-3.1 3.4-4.7.6 1.2 1.2 2.5 1.7 3.9.7 2.3 1.9 4.4 2.6 6.8.5 1.5 3.8.6 3.3-.9-.7-2.3-1.9-4.5-2.6-6.8-.8-2.3-2-4.4-3-6.6.8-1.6 1.7-3.3 2.5-5 .7-1.5 1.2-3.2 2.6-4.3.5-.4.5-.8-.2-.8-.7-.1-1.7.2-2.3.6-1.3 1-2 2.2-2.7 3.6-.8 1.7-1.6 3.4-2.5 5.1-.1.1-.1.2-.2.4-.4.3-.7.6-.5 1.1-.7 1.3-1.3 2.6-2.1 3.9-.3-4.7-.8-9.3-1-14 0-1.1-3.3-.4-3.3.9.2 5.7 1 11.5 1 17.3ZM85.95 15.62c-.2-.7-1.2-.7-1.9-.6v-.8c-.1-2.2-.1-4.5-.3-6.8-.2-2.1-1.3-2.8-3.3-2.7-2 .1-4.4.4-6.3 1.2a5.9 5.9 0 0 0-3.8 4.8c-.5 2.5.2 5.2.3 7.8.1 3 .1 5.9.1 8.9 0 .5 3.3 0 3.3-.9v-7c0-.7 0-1.4-.1-2.1 1.2-.5 3.1 0 4.3.1.9.1 1.8-.1 2.7-.2 0 1.9.1 3.9.2 5.9 0 1 .4 3-.3 3.8-.4.4 1.2.3 1.3.3.7-.1 1.5-.3 1.9-.9.8-.9.4-3.2.3-4.3-.1-1.6-.1-3.2-.1-4.8.8-.4 1.9-1 1.7-1.7Zm-6.6-.2c-1.9 0-3.8-.3-5.7 0l-.3-3.2c-.1-2 .1-4.7 1.9-5.9.5-.3 1.4-.3 2-.4.8-.1 1.6-.3 2.4.2 1 .7.8 3.1.8 4.1 0 1.7.2 3.4.3 5.1-.5.1-1 .1-1.4.1ZM19.15 4.12c0 .2 0 .4.1.5v.4c.1.2.2.3.4.4.3.2.7.2 1.1.2.4 0 .9-.2 1.2-.4l.2-.2c.4-.3.8-.7.6-1.1-.4-.9-.4-1.9-.3-2.9 0-.8-.8-1.1-1.5-1-.6.1-1.8.5-1.8 1.3s-.1 1.7.1 2.5c-.1.1-.1.2-.1.3ZM80.65 33.32c-1.6-.6-3.3-.6-4.9-.8l-4.9-.6c-1.6.1-3.3 0-5 .1l-4.9.3c-6.5.3-13 .3-19.5.1-6.5-.1-13-.5-19.6-.5-3.3 0-6.6.1-9.9.3-1.6.3-3.2.5-4.9.9-1.6.4-3.1.9-4.8 1 1.6.4 3.3.3 5 .3 1.6 0 3.2.1 4.9.2 3.2-.2 6.5-.2 9.7-.3 6.5 0 13 .3 19.6.5 6.5.1 13.1.2 19.7-.1l4.9-.3c1.6-.1 3.2-.1 4.8-.1 1.6-.1 3.3-.3 4.9-.5 1.7-.2 3.2-.6 4.9-.5h.1v-.6c0 .4 0 .5-.1.6Z" fill="#000"/>
  </symbol>
  <symbol viewBox="0 0 28 23" id="icon-vk">
    <path d="M1 5.84c0-.86.52-1.32 1.55-1.38l3.97.02c.26 0 .44.13.53.38.4 1.26.86 2.34 1.37 3.25.5.92 1.17 1.97 1.99 3.16.07.15.18.23.34.23.13 0 .22-.06.3-.18l.07-.28.03-4.35c0-.3-.07-.5-.23-.6-.15-.1-.43-.18-.83-.23-.32-.05-.48-.23-.48-.55 0-.07 0-.12.02-.15.38-1.09 1.44-1.63 3.2-1.63l1.5-.03c.67 0 1.23.16 1.67.48.44.32.67.82.67 1.5v5.72c.12.08.24.12.34.12.27 0 .5-.15.7-.45 1.95-2.58 3-4.31 3.17-5.18 0-.02.01-.06.05-.13.12-.25.33-.47.61-.65.29-.19.53-.31.75-.38a.55.55 0 0 1 .24-.05h4.13l.26.03c.36 0 .63.16.83.47.07.1.12.21.15.33a2.4 2.4 0 0 1 .06.55v.18a6.11 6.11 0 0 1-.94 2.2c-.5.78-1.15 1.62-1.93 2.53-.79.9-1.27 1.5-1.47 1.78-.16.2-.24.39-.24.56 0 .13.07.28.21.45l3.9 4.63c.2.26.31.56.31.88 0 .38-.16.7-.48.95-.32.25-.7.4-1.14.43l-.46.02h-4.04c-.02 0-.06 0-.11.02a.86.86 0 0 1-.1.01c-.4 0-.76-.16-1.1-.48-.12-.13-.96-1.12-2.5-2.97a1.39 1.39 0 0 0-.38-.32 38.47 38.47 0 0 0-.53 2.24l-.08.42a1.4 1.4 0 0 1-1.12 1.06l-.37.02h-2.61c-1.48 0-2.95-.63-4.41-1.9a19.3 19.3 0 0 1-3.96-4.95 47.51 47.51 0 0 1-3.28-7.05A1.92 1.92 0 0 1 1 5.84Zm16.01 6.51c-.37 0-.7-.1-1.01-.29a.9.9 0 0 1-.45-.79V5.5c0-.34-.1-.58-.27-.72-.18-.14-.49-.21-.93-.21l-1.52.05c-.76 0-1.34.12-1.73.37.78.36 1.17.93 1.17 1.71v4.43a1.5 1.5 0 0 1-.53 1.04c-.32.28-.68.42-1.07.42-.53 0-.94-.24-1.22-.73a26.16 26.16 0 0 1-3.1-5.63l-.23-.66-3.55-.02c-.23 0-.36.01-.38.03-.03.03-.04.1-.04.22 0 .15.01.3.05.48l.56 1.4c1.49 3.64 3.11 6.51 4.86 8.6 1.75 2.1 3.47 3.15 5.16 3.15h2.66c.1 0 .19-.03.24-.09.05-.06.1-.17.13-.34l.06-.25.5-2.21c.15-.3.27-.5.38-.6.2-.2.42-.28.69-.28.43 0 .86.24 1.3.73l2.27 2.71c.14.22.3.33.45.33h4.4c.53 0 .8-.13.8-.38a.47.47 0 0 0-.08-.25l-3.87-4.55c-.3-.35-.45-.73-.45-1.13 0-.4.14-.8.43-1.16.23-.34.68-.9 1.34-1.67.67-.78 1.25-1.51 1.75-2.19.5-.68.82-1.3.98-1.85l.08-.33a.37.37 0 0 1-.02-.16c0-.07-.01-.14-.03-.19h-4.18c-.27.1-.48.25-.64.45l-.16.48c-.45 1.16-1.6 2.94-3.5 5.36-.36.33-.8.5-1.3.5Z" fill="#231F20"/>
  </symbol>
  <symbol viewBox="0 0 28 23" id="icon-youtube">
    <path d="m17.85 11.3-5.24-3.5a.65.65 0 0 0-1.01.55v6.98a.65.65 0 0 0 1.01.54l5.24-3.49a.65.65 0 0 0 0-1.09Zm-4.94 2.8V9.58l3.4 2.27-3.4 2.27Zm12.48-8.56a2.4 2.4 0 0 0-1.45-1.63C20.22 2.48 14.25 2.5 14 2.5s-6.22-.02-9.94 1.4a2.4 2.4 0 0 0-1.45 1.64 25.32 25.32 0 0 0-.61 6.3c0 3.26.33 5.22.61 6.3a2.4 2.4 0 0 0 1.45 1.63c3.72 1.43 9.69 1.4 9.94 1.4h.08c.75 0 6.31-.04 9.86-1.4a2.4 2.4 0 0 0 1.45-1.64c.28-1.07.61-3.03.61-6.3 0-3.25-.33-5.22-.61-6.29Zm-1.27 12.27a1.1 1.1 0 0 1-.65.74c-3.5 1.34-9.4 1.32-9.47 1.32-.07 0-5.98.02-9.47-1.32a1.09 1.09 0 0 1-.65-.74c-.27-1-.57-2.85-.57-5.97 0-3.12.3-4.97.57-5.97a1.1 1.1 0 0 1 .65-.74C8.03 3.79 13.93 3.8 14 3.8c.07 0 5.98-.02 9.47 1.32a1.1 1.1 0 0 1 .65.74c.27 1 .57 2.85.57 5.97 0 3.12-.3 4.96-.57 5.97Z" fill="#231F20"/>
  </symbol>
  <symbol viewBox="0 0 28 23" id="icon-telegram">
    <path fill-rule="evenodd" clip-rule="evenodd" d="M23.46 3.65c.18.15.27.38.23.61l-2.63 15.76a.66.66 0 0 1-1.01.44l-7.88-5.25a.66.66 0 0 1-.15-.96L14.63 11l-4.36 2.9a.66.66 0 0 1-.65.05L4.36 11.3a.66.66 0 0 1 .08-1.2l18.38-6.57a.66.66 0 0 1 .64.11ZM6.33 10.82l3.53 1.77 7.56-5.04a.66.66 0 0 1 .88.96l-4.8 6 6.43 4.3 2.28-13.66-15.88 5.67Z" fill="#231F20"/>
  </symbol>
  <symbol viewBox="0 0 60 60" id="icon-html">
    <path d="M30.2 5h-.2l-19.7 2.1v36.2l19.7 11.7 19.7-11.7v-36.2l-19.5-2.1zm17 36.8l-17.2 10.2-17.2-10.2v-14.8l17.1 10.2v1.8l-11.7-7v1.8l11.8 7.1v1.9l-11.8-7v1.8l11.8 7 11.9-7.1v-7.6l5.3-3.2v15.1zm-.1-17l-4.7 2.8-2.2 1.3-10.3-6.1v1.8l8.8 5.3h-.1l-.2.1-1.3.7-7.3-4.3v1.8l5.8 3.4-1.4.9-4.3-2.6v1.8l2.9 1.7-2.9 1.7-17-10.1 17-10.2 17.2 10zm.1-1.8l-17.3-10.2-17.1 10.2v-13.6l17.2-1.8 17.2 1.8v13.6z"/>
  </symbol>
</svg>
